HIERARCHY
ROOT torso
{
	OFFSET 0.053426 -0.000000 0.000000
	CHANNELS 6 Xposition Yposition Zposition Xrotation Yrotation Zrotation
	JOINT head
	{
		OFFSET 0.000000 0.000000 1.021371
		CHANNELS 3 Xrotation Yrotation Zrotation
		End Site
		{
			OFFSET 0.000000 0.000000 0.651800
		}
	}
	JOINT arm.upper.left
	{
		OFFSET 0.523577 0.000000 0.957259
		CHANNELS 6 Xposition Yposition Zposition Xrotation Yrotation Zrotation
		JOINT arm.lower.left
		{
			OFFSET 0.010685 0.000000 -0.705227
			CHANNELS 3 Xrotation Yrotation Zrotation
			End Site
			{
				OFFSET 0.032056 0.000000 -0.598374
			}
		}
	}
	JOINT arm.upper.right
	{
		OFFSET -0.630430 0.000000 0.957259
		CHANNELS 6 Xposition Yposition Zposition Xrotation Yrotation Zrotation
		JOINT arm.lower.right
		{
			OFFSET -0.010685 0.000000 -0.705227
			CHANNELS 3 Xrotation Yrotation Zrotation
			End Site
			{
				OFFSET -0.032056 0.000000 -0.598374
			}
		}
	}
	JOINT leg.upper.left
	{
		OFFSET 0.224390 0.000000 -0.111266
		CHANNELS 6 Xposition Yposition Zposition Xrotation Yrotation Zrotation
		JOINT leg.lower.left
		{
			OFFSET 0.000000 0.000000 -0.651800
			CHANNELS 3 Xrotation Yrotation Zrotation
			End Site
			{
				OFFSET 0.010685 0.000000 -0.769338
			}
		}
	}
	JOINT leg.upper.right
	{
		OFFSET -0.331243 0.000000 -0.111266
		CHANNELS 6 Xposition Yposition Zposition Xrotation Yrotation Zrotation
		JOINT leg.lower.right
		{
			OFFSET 0.000000 0.000000 -0.651800
			CHANNELS 3 Xrotation Yrotation Zrotation
			End Site
			{
				OFFSET -0.010685 0.000000 -0.769338
			}
		}
	}
}
MOTION
Frames: 20
Frame Time: 0.041667
0.053426 -0.000000 0.000000 -0.000000 0.000000 -0.000000 -0.000000 0.000000 -0.000000 0.523577 0.000000 0.957259 13.857940 -1.047843 0.461527 -0.050524 2.203027 -0.015081 -0.630430 0.000000 0.957259 -18.230045 2.021803 1.033613 -0.050527 -2.203026 0.015082 0.224390 0.000000 -0.111266 28.935318 0.357052 -0.194575 30.664821 -0.092904 0.026187 -0.331243 0.000000 -0.111266 -23.203249 -0.270117 -0.135226 0.389083 -0.765561 -0.058212 
0.053426 -0.000000 0.000000 -0.000000 0.000000 -0.000000 -0.000000 0.000000 -0.000000 0.523577 0.000000 0.957259 12.989310 -1.084585 0.429217 -0.050527 2.203027 -0.015082 -0.630430 0.000000 0.957259 -17.360381 2.007130 0.986905 -0.050524 -2.203026 0.015081 0.224390 0.000000 -0.111266 27.549083 0.358783 -0.185358 29.843760 -0.069911 0.021043 -0.331243 0.000000 -0.111266 -21.817007 -0.276162 -0.128058 1.210249 -0.743011 -0.051382 
0.053426 -0.000000 0.000000 -0.000000 0.000000 -0.000000 -0.000000 0.000000 -0.000000 0.523577 0.000000 0.957259 10.373371 -1.192243 0.328597 -0.050526 2.203027 -0.015082 -0.630430 0.000000 0.957259 -14.741626 1.958665 0.847662 -0.050526 -2.203026 0.015081 0.224390 0.000000 -0.111266 23.349540 0.362659 -0.157211 27.372224 -0.000276 0.007556 -0.331243 0.000000 -0.111266 -17.617474 -0.293397 -0.105473 3.682041 -0.674569 -0.032778 
0.053426 -0.000000 0.000000 -0.000000 0.000000 -0.000000 -0.000000 0.000000 -0.000000 0.523577 0.000000 0.957259 6.147041 -1.356177 0.155967 -0.050526 2.203027 -0.015081 -0.630430 -0.000000 0.957259 -10.511799 1.867049 0.627826 -0.050525 -2.203026 0.015082 0.224390 0.000000 -0.111266 16.497929 0.364524 -0.110893 23.382374 0.113188 -0.007831 -0.331243 0.000000 -0.111266 -10.765942 -0.317839 -0.066090 7.672169 -0.562565 -0.009010 
0.053426 -0.000000 0.000000 -0.000000 0.000000 -0.000000 -0.000000 0.000000 -0.000000 0.523577 0.000000 0.957259 0.739427 -1.546650 -0.081710 -0.050525 2.203026 -0.015081 -0.630430 -0.000000 0.957259 -5.101719 1.726598 0.357480 -0.050525 -2.203026 0.015082 0.224390 0.000000 -0.111266 7.650958 0.358732 -0.051318 18.281461 0.259351 -0.015928 -0.331243 0.000000 -0.111266 -1.919088 -0.342162 -0.011404 12.773232 -0.417416 0.009946 
0.053426 -0.000000 0.000000 -0.000000 0.000000 -0.000000 -0.000000 0.000000 -0.000000 0.523577 -0.000000 0.957259 -5.108877 -1.726458 -0.357690 -0.050524 2.203027 -0.015081 -0.630430 0.000000 0.957259 0.746590 1.546762 0.081504 -0.050525 -2.203026 0.015081 0.224390 0.000000 -0.111266 -1.949832 0.342157 0.011496 12.767390 0.417490 -0.010015 -0.331243 0.000000 -0.111266 7.681639 -0.358711 0.051413 18.287265 -0.259280 0.015847 
0.053426 -0.000000 0.000000 -0.000000 0.000000 -0.000000 -0.000000 0.000000 -0.000000 0.523577 0.000000 0.957259 -10.517180 -1.866922 -0.627985 -0.050524 2.203028 -0.015081 -0.630430 0.000000 0.957259 6.152436 1.356243 -0.156117 -0.050525 -2.203026 0.015081 0.224390 0.000000 -0.111266 -10.788945 0.317818 0.066152 7.667748 0.562624 0.008966 -0.331243 0.000000 -0.111266 16.520797 -0.364488 0.110962 23.386716 -0.113139 0.007762 
0.053426 -0.000000 0.000000 -0.000000 0.000000 -0.000000 -0.000000 0.000000 -0.000000 0.523577 -0.000000 0.957259 -14.744475 -1.958589 -0.847745 -0.050524 2.203027 -0.015081 -0.630430 0.000000 0.957259 10.376230 1.192272 -0.328673 -0.050524 -2.203025 0.015082 0.224390 0.000000 -0.111266 -17.629536 0.293378 0.105502 3.679689 0.674601 0.032758 -0.331243 0.000000 -0.111266 23.361498 -0.362631 0.157245 27.374515 0.000300 -0.007596 
0.053426 -0.000000 0.000000 -0.000000 0.000000 -0.000000 -0.000000 0.000000 -0.000000 0.523577 -0.000000 0.957259 -17.361163 -2.007108 -0.986928 -0.050525 2.203027 -0.015082 -0.630430 0.000000 0.957259 12.990098 1.084593 -0.429237 -0.050527 -2.203026 0.015081 0.224390 0.000000 -0.111266 -21.820291 0.276153 0.128064 1.209595 0.743020 0.051377 -0.331243 0.000000 -0.111266 27.552336 -0.358771 0.185366 29.844392 0.069917 -0.021054 
0.053426 -0.000000 0.000000 -0.000000 0.000000 -0.000000 -0.000000 0.000000 -0.000000 0.523577 0.000000 0.957259 -18.230041 -2.021802 -1.033613 -0.050524 2.203027 -0.015082 -0.630430 0.000000 0.957259 13.857941 1.047843 -0.461527 -0.050527 -2.203026 0.015081 0.224390 0.000000 -0.111266 -23.203249 0.270113 0.135225 0.389088 0.765561 0.058211 -0.331243 0.000000 -0.111266 28.935318 -0.357047 0.194574 30.664828 0.092905 -0.026188 
0.053426 -0.000000 0.000000 -0.000000 0.000000 -0.000000 -0.000000 0.000000 -0.000000 0.523577 -0.000000 0.957259 -17.526991 -2.009967 -0.995821 -0.050526 2.203028 -0.015081 -0.630430 0.000000 0.957259 13.155738 1.077615 -0.435443 -0.050526 -2.203026 0.015081 0.224390 0.000000 -0.111266 -22.084565 0.275012 0.129444 1.053007 0.747329 0.052656 -0.331243 0.000000 -0.111266 27.816613 -0.358459 0.187129 30.000981 0.074310 -0.022008 
0.053426 -0.000000 0.000000 -0.000000 0.000000 -0.000000 -0.000000 0.000000 -0.000000 0.523577 -0.000000 0.957259 -15.404551 -1.971432 -0.882647 -0.050523 2.203027 -0.015081 -0.630430 0.000000 0.957259 11.035644 1.165537 -0.354505 -0.050527 -2.203026 0.015081 0.224390 0.000000 -0.111266 -18.689981 0.289175 0.111331 3.056704 0.691933 0.037177 -0.331243 0.000000 -0.111266 24.421961 -0.361850 0.164388 27.997451 0.017914 -0.010706 
0.053426 -0.000000 0.000000 -0.000000 0.000000 -0.000000 -0.000000 0.000000 -0.000000 0.523577 -0.000000 0.957259 -11.935188 -1.899489 -0.700948 -0.050524 2.203027 -0.015081 -0.630430 0.000000 0.957259 7.569421 1.302647 -0.215349 -0.050526 -2.203026 0.015082 0.224390 0.000000 -0.111266 -13.091320 0.310116 0.079722 6.330230 0.600364 0.016079 -0.331243 0.000000 -0.111266 18.823211 -0.364482 0.126565 24.724166 -0.074973 0.003494 
0.053426 -0.000000 0.000000 -0.000000 0.000000 -0.000000 -0.000000 0.000000 -0.000000 0.523577 0.000000 0.957259 -7.371915 -1.788358 -0.469183 -0.050526 2.203027 -0.015082 -0.630430 0.000000 0.957259 3.008883 1.469747 -0.020122 -0.050525 -2.203026 0.015082 0.224390 0.000000 -0.111266 -5.655680 0.332977 0.034870 10.633653 0.478424 -0.003640 -0.331243 0.000000 -0.111266 11.387499 -0.362255 0.076273 20.420951 -0.198043 0.014052 
0.053426 -0.000000 0.000000 -0.000000 0.000000 -0.000000 -0.000000 0.000000 -0.000000 0.523577 0.000000 0.957259 -2.183969 -1.640085 -0.217384 -0.050524 2.203027 -0.015082 -0.630430 0.000000 0.957259 -2.177974 1.640191 0.217210 -0.050525 -2.203026 0.015082 0.224390 0.000000 -0.111266 2.853029 0.351760 -0.019572 15.524914 0.338486 -0.014869 -0.331243 0.000000 -0.111266 2.878798 -0.351753 0.019651 15.529789 -0.338425 0.014806 
0.053426 -0.000000 0.000000 -0.000000 0.000000 -0.000000 -0.000000 0.000000 -0.000000 0.523577 0.000000 0.957259 3.003521 -1.469672 0.019970 -0.050525 2.203027 -0.015081 -0.630430 -0.000000 0.957259 -7.366565 1.788471 0.469025 -0.050524 -2.203026 0.015082 0.224390 0.000000 -0.111266 11.364599 0.362279 -0.076203 20.416615 0.198094 -0.014116 -0.331243 0.000000 -0.111266 -5.632691 -0.332988 -0.034804 10.638033 -0.478367 0.003592 
0.053426 -0.000000 0.000000 -0.000000 0.000000 -0.000000 -0.000000 0.000000 -0.000000 0.523577 0.000000 0.957259 7.565654 -1.302604 0.215246 -0.050528 2.203027 -0.015081 -0.630430 0.000000 0.957259 -11.931432 1.899581 0.700838 -0.050524 -2.203026 0.015082 0.224390 0.000000 -0.111266 18.807296 0.364511 -0.126518 24.721134 0.075007 -0.003544 -0.331243 0.000000 -0.111266 -13.075293 -0.310134 -0.079681 6.333319 -0.600323 -0.016109 
0.053426 -0.000000 0.000000 -0.000000 0.000000 -0.000000 -0.000000 0.000000 -0.000000 0.523577 0.000000 0.957259 11.033724 -1.165519 0.354454 -0.050527 2.203027 -0.015081 -0.630430 -0.000000 0.957259 -15.402643 1.971484 0.882591 -0.050522 -2.203026 0.015082 0.224390 0.000000 -0.111266 24.413946 0.361871 -0.164366 27.995909 -0.017898 0.010679 -0.331243 0.000000 -0.111266 -18.681891 -0.289189 -0.111312 3.058285 -0.691912 -0.037190 
0.053426 -0.000000 0.000000 -0.000000 0.000000 -0.000000 -0.000000 0.000000 -0.000000 0.523577 0.000000 0.957259 13.155230 -1.077611 0.435430 -0.050527 2.203027 -0.015082 -0.630430 0.000000 0.957259 -17.526489 2.009983 0.995807 -0.050523 -2.203026 0.015081 0.224390 0.000000 -0.111266 27.814482 0.358469 -0.187124 30.000554 -0.074306 0.022001 -0.331243 0.000000 -0.111266 -22.082410 -0.275019 -0.129440 1.053442 -0.747323 -0.052660 
0.053426 -0.000000 0.000000 -0.000000 0.000000 -0.000000 -0.000000 0.000000 -0.000000 0.523577 0.000000 0.957259 13.857940 -1.047843 0.461527 -0.050524 2.203027 -0.015081 -0.630430 0.000000 0.957259 -18.230045 2.021803 1.033613 -0.050527 -2.203026 0.015082 0.224390 0.000000 -0.111266 28.935318 0.357052 -0.194575 30.664821 -0.092904 0.026187 -0.331243 0.000000 -0.111266 -23.203249 -0.270117 -0.135226 0.389083 -0.765561 -0.058212 
